<svg xmlns="http://www.w3.org/2000/svg">
 <defs>

  <symbol id="chevron-down" viewBox="0 0 448 512">
    <title>Facebook</title>
    <path fill="currentColor" d="M224 416c-8.188 0-16.38-3.125-22.62-9.375l-192-192c-12.5-12.5-12.5-32.75 0-45.25s32.75-12.5 45.25 0L224 338.8l169.4-169.4c12.5-12.5 32.75-12.5 45.25 0s12.5 32.75 0 45.25l-192 192C240.4 412.9 232.2 416 224 416z"/>
  </symbol>

  <symbol id="wave" viewBox="0 0 1440 320">
    <title>Wave</title>
    <path fill="currentColor" fill-opacity="1" d="M0,160L60,154.7C120,149,240,139,360,117.3C480,96,600,64,720,80C840,96,960,160,1080,165.3C1200,171,1320,117,1380,90.7L1440,64L1440,320L1380,320C1320,320,1200,320,1080,320C960,320,840,320,720,320C600,320,480,320,360,320C240,320,120,320,60,320L0,320Z"></path>
  </symbol>

 </defs>
</svg>